<?xml version="1.0" standalone="no"?><!DOCTYPE svg PUBLIC "-//W3C//DTD SVG 1.1//EN" "http://www.w3.org/Graphics/SVG/1.1/DTD/svg11.dtd"><svg t="1661332816573" class="icon" viewBox="0 0 1024 1024" version="1.1" xmlns="http://www.w3.org/2000/svg" p-id="1470" xmlns:xlink="http://www.w3.org/1999/xlink" width="200" height="200"><defs><style type="text/css">@font-face { font-family: feedback-iconfont; src: url("//at.alicdn.com/t/font_1031158_u69w8yhxdu.woff2?t=1630033759944") format("woff2"), url("//at.alicdn.com/t/font_1031158_u69w8yhxdu.woff?t=1630033759944") format("woff"), url("//at.alicdn.com/t/font_1031158_u69w8yhxdu.ttf?t=1630033759944") format("truetype"); }
</style></defs><path d="M512 0a512 512 0 1 0 512 512 512 512 0 0 0-512-512z m311.04 823.04a442.24 442.24 0 0 1-311.04 128 448 448 0 0 1-171.52-34.56 448 448 0 0 1-139.52-94.72 429.44 429.44 0 0 1-94.08-139.52A437.76 437.76 0 0 1 71.68 512a448 448 0 0 1 34.56-171.52 448 448 0 0 1 94.72-139.52 429.44 429.44 0 0 1 139.52-94.08A437.76 437.76 0 0 1 512 71.68a448 448 0 0 1 171.52 34.56 448 448 0 0 1 139.52 94.72 429.44 429.44 0 0 1 94.08 139.52A437.12 437.12 0 0 1 951.68 512a448 448 0 0 1-33.92 171.52 448 448 0 0 1-94.72 139.52z m-90.88-346.24H291.84a35.84 35.84 0 0 0 0 71.68h440.32a35.84 35.84 0 1 0 0-71.68z" fill="#445365" p-id="1471"></path></svg>